<svg xmlns="http://www.w3.org/2000/svg" viewBox="0 0 640 420" role="img" aria-labelledby="title desc">
  <title id="title">Crunch invertido</title>
  <desc id="desc">Ilustración de una persona tumbada elevando las rodillas hacia el pecho.</desc>
  <defs>
    <linearGradient id="bg" x1="0" x2="1" y1="0" y2="1">
      <stop offset="0" stop-color="#102c35"/>
      <stop offset="1" stop-color="#071820"/>
    </linearGradient>
    <filter id="glow">
      <feGaussianBlur stdDeviation="5" result="blur"/>
      <feMerge>
        <feMergeNode in="blur"/>
        <feMergeNode in="SourceGraphic"/>
      </feMerge>
    </filter>
  </defs>
  <rect width="640" height="420" rx="34" fill="url(#bg)"/>
  <path d="M78 326H566" stroke="#39ff6a" stroke-opacity=".22" stroke-width="8" stroke-linecap="round"/>
  <path d="M112 306H526" stroke="#39ff6a" stroke-opacity=".1" stroke-width="2" stroke-linecap="round"/>
  <g fill="none" stroke="#d8ffe1" stroke-linecap="round" stroke-linejoin="round">
    <circle cx="158" cy="263" r="28" stroke-width="12"/>
    <path d="M185 273C238 277 292 278 341 267" stroke-width="16"/>
    <path d="M337 267C371 249 397 215 394 178" stroke-width="16"/>
    <path d="M394 178C389 146 366 127 335 124" stroke-width="16"/>
    <path d="M334 124L292 142" stroke-width="14"/>
    <path d="M394 178L427 151L455 157" stroke-width="12"/>
  </g>
  <g fill="#39ff6a" filter="url(#glow)">
    <circle cx="158" cy="263" r="7"/>
    <circle cx="286" cy="278" r="7"/>
    <circle cx="341" cy="267" r="7"/>
    <circle cx="394" cy="178" r="7"/>
    <circle cx="455" cy="157" r="7"/>
  </g>
  <path d="M109 334H531" stroke="#39ff6a" stroke-opacity=".55" stroke-width="3" stroke-dasharray="8 12"/>
</svg>